<svg xmlns="http://www.w3.org/2000/svg" viewBox="0 0 32 32">
  <rect width="32" height="32" fill="#4CAF50" rx="4"/>
  <rect x="4" y="4" width="4" height="4" fill="white"/>
  <rect x="8" y="4" width="4" height="4" fill="white"/>
  <rect x="12" y="4" width="4" height="4" fill="white"/>
  <rect x="4" y="8" width="4" height="4" fill="white"/>
  <rect x="12" y="8" width="4" height="4" fill="white"/>
  <rect x="4" y="12" width="4" height="4" fill="white"/>
  <rect x="8" y="12" width="4" height="4" fill="white"/>
  <rect x="12" y="12" width="4" height="4" fill="white"/>
  <rect x="20" y="4" width="4" height="4" fill="white"/>
  <rect x="24" y="4" width="4" height="4" fill="white"/>
  <rect x="20" y="8" width="4" height="4" fill="white"/>
  <rect x="20" y="12" width="4" height="4" fill="white"/>
  <rect x="24" y="12" width="4" height="4" fill="white"/>
  <rect x="4" y="20" width="4" height="4" fill="white"/>
  <rect x="8" y="20" width="4" height="4" fill="white"/>
  <rect x="12" y="20" width="4" height="4" fill="white"/>
  <rect x="4" y="24" width="4" height="4" fill="white"/>
  <rect x="12" y="24" width="4" height="4" fill="white"/>
  <rect x="20" y="20" width="4" height="4" fill="white"/>
  <rect x="24" y="24" width="4" height="4" fill="white"/>
</svg>
